<?xml version="1.0" encoding="UTF-8"?>
<!DOCTYPE svg PUBLIC "-//W3C//DTD SVG 1.1//EN" "http://www.w3.org/Graphics/SVG/1.1/DTD/svg11.dtd">
<svg xmlns="http://www.w3.org/2000/svg" version="1.1" width="512px" height="512px" style="shape-rendering:geometricPrecision; text-rendering:geometricPrecision; image-rendering:optimizeQuality; fill-rule:evenodd; clip-rule:evenodd" xmlns:xlink="http://www.w3.org/1999/xlink">
<g><path style="opacity:1" fill="#1c3863" d="M -0.5,-0.5 C 170.167,-0.5 340.833,-0.5 511.5,-0.5C 511.5,170.167 511.5,340.833 511.5,511.5C 340.833,511.5 170.167,511.5 -0.5,511.5C -0.5,340.833 -0.5,170.167 -0.5,-0.5 Z"/></g>
<g><path style="opacity:1" fill="#fa9573" d="M 238.5,90.5 C 238.755,92.9674 239.755,94.9674 241.5,96.5C 242.167,99.5 242.833,102.5 243.5,105.5C 243.575,108.206 243.908,110.873 244.5,113.5C 252.019,113.825 259.352,113.492 266.5,112.5C 266.5,111.167 266.5,109.833 266.5,108.5C 267.184,105.408 268.184,102.408 269.5,99.5C 271.38,97.2446 272.38,94.5779 272.5,91.5C 273.498,87.4945 275.498,84.1612 278.5,81.5C 280.587,80.4154 281.92,78.7488 282.5,76.5C 284.5,75.1667 286.167,73.5 287.5,71.5C 291.759,67.3491 296.092,63.1825 300.5,59C 302.833,58.3333 305.167,58.3333 307.5,59C 308.056,59.3826 308.389,59.8826 308.5,60.5C 310.046,62.8825 310.713,65.5491 310.5,68.5C 307.813,72.1823 304.146,74.349 299.5,75C 293.532,79.4612 288.866,84.9612 285.5,91.5C 283.75,92.6594 282.75,94.326 282.5,96.5C 280.415,98.6845 279.415,101.351 279.5,104.5C 278.566,105.568 278.232,106.901 278.5,108.5C 277.366,110.966 277.199,113.633 278,116.5C 279.356,117.38 280.856,117.714 282.5,117.5C 284.072,118.687 285.739,119.687 287.5,120.5C 288.899,121.89 290.566,122.89 292.5,123.5C 302.311,130.308 309.977,138.975 315.5,149.5C 316.36,154.207 318.027,158.541 320.5,162.5C 321.167,165.167 321.833,167.833 322.5,170.5C 322.5,172.833 322.5,175.167 322.5,177.5C 333.5,177.5 344.5,177.5 355.5,177.5C 390.291,179.767 415.625,196.433 431.5,227.5C 431.12,229.698 431.787,231.365 433.5,232.5C 435.644,238.085 437.31,243.751 438.5,249.5C 438.5,256.167 438.5,262.833 438.5,269.5C 435.643,287.674 428.31,303.674 416.5,317.5C 412.833,320.5 409.5,323.833 406.5,327.5C 401.793,330.184 397.127,332.851 392.5,335.5C 390.973,335.427 389.973,336.094 389.5,337.5C 389.167,337.5 388.833,337.5 388.5,337.5C 385.654,337.552 383.32,338.552 381.5,340.5C 366.345,344.989 351.012,345.655 335.5,342.5C 332.335,341.288 330.668,342.621 330.5,346.5C 328.538,349.474 326.538,352.474 324.5,355.5C 322.367,357.091 320.701,359.091 319.5,361.5C 313.833,366.5 308.5,371.833 303.5,377.5C 299.656,379.587 295.989,381.92 292.5,384.5C 290.973,384.427 289.973,385.094 289.5,386.5C 284.815,388.276 280.482,390.609 276.5,393.5C 274.102,393.259 272.102,393.926 270.5,395.5C 268.173,395.665 266.007,396.331 264,397.5C 263.452,401.17 262.952,404.837 262.5,408.5C 260.256,422.302 257.922,435.969 255.5,449.5C 254.833,449.167 254.167,448.833 253.5,448.5C 250.978,431.465 248.145,414.465 245,397.5C 229.432,392.803 215.599,385.137 203.5,374.5C 202.415,372.413 200.749,371.08 198.5,370.5C 189.864,362.407 182.531,353.24 176.5,343C 166.569,344.051 156.569,344.551 146.5,344.5C 143.689,343.525 140.689,342.858 137.5,342.5C 131.214,341.102 125.214,339.102 119.5,336.5C 119.027,335.094 118.027,334.427 116.5,334.5C 100.388,326.056 88.3881,313.723 80.5,297.5C 79.4918,295.456 78.4918,293.456 77.5,291.5C 77.2041,289.597 76.5375,287.93 75.5,286.5C 75.5797,283.219 74.913,280.219 73.5,277.5C 73.8064,274.615 73.4731,271.948 72.5,269.5C 72.269,260.092 72.9356,250.759 74.5,241.5C 75.803,237.251 77.1363,232.918 78.5,228.5C 79.9063,228.027 80.573,227.027 80.5,225.5C 83.1067,217.943 87.4401,211.61 93.5,206.5C 96.1667,204.5 98.5,202.167 100.5,199.5C 104.652,194.682 109.652,191.015 115.5,188.5C 117.027,188.573 118.027,187.906 118.5,186.5C 119.492,186.672 120.158,186.338 120.5,185.5C 124.915,185.139 128.915,183.806 132.5,181.5C 139.707,179.401 147.04,178.067 154.5,177.5C 166.167,177.5 177.833,177.5 189.5,177.5C 189.5,174.5 189.5,171.5 189.5,168.5C 191.034,161.566 193.367,154.9 196.5,148.5C 197.906,148.027 198.573,147.027 198.5,145.5C 206.135,131.534 217.468,121.867 232.5,116.5C 233.853,112.014 233.519,107.681 231.5,103.5C 231.585,100.351 230.585,97.6845 228.5,95.5C 226.252,90.678 223.252,86.3446 219.5,82.5C 218.5,79.5 216.5,77.5 213.5,76.5C 210.609,74.2047 207.275,72.7047 203.5,72C 199.577,67.594 199.577,63.2606 203.5,59C 206.303,58.245 208.97,58.5783 211.5,60C 217.72,65.3731 223.887,70.8731 230,76.5C 233.483,80.8067 236.317,85.4734 238.5,90.5 Z"/></g>
<g><path style="opacity:1" fill="#b87a6e" d="M 308.5,60.5 C 311.517,62.6154 312.184,65.282 310.5,68.5C 310.713,65.5491 310.046,62.8825 308.5,60.5 Z"/></g>
<g><path style="opacity:1" fill="#b2776e" d="M 287.5,71.5 C 286.167,73.5 284.5,75.1667 282.5,76.5C 283.167,73.8333 284.833,72.1667 287.5,71.5 Z"/></g>
<g><path style="opacity:1" fill="#a4716d" d="M 213.5,76.5 C 216.5,77.5 218.5,79.5 219.5,82.5C 217.167,80.8333 215.167,78.8333 213.5,76.5 Z"/></g>
<g><path style="opacity:1" fill="#b2776e" d="M 282.5,76.5 C 281.92,78.7488 280.587,80.4154 278.5,81.5C 279.08,79.2512 280.413,77.5846 282.5,76.5 Z"/></g>
<g><path style="opacity:1" fill="#c57f6f" d="M 272.5,91.5 C 272.38,94.5779 271.38,97.2446 269.5,99.5C 269.62,96.4221 270.62,93.7554 272.5,91.5 Z"/></g>
<g><path style="opacity:1" fill="#90696b" d="M 238.5,90.5 C 240.245,92.0326 241.245,94.0326 241.5,96.5C 239.755,94.9674 238.755,92.9674 238.5,90.5 Z"/></g>
<g><path style="opacity:1" fill="#5e5268" d="M 285.5,91.5 C 285.408,93.8477 284.408,95.5144 282.5,96.5C 282.75,94.326 283.75,92.6594 285.5,91.5 Z"/></g>
<g><path style="opacity:1" fill="#665668" d="M 228.5,95.5 C 230.585,97.6845 231.585,100.351 231.5,103.5C 229.415,101.316 228.415,98.6489 228.5,95.5 Z"/></g>
<g><path style="opacity:1" fill="#645568" d="M 241.5,96.5 C 243.554,99.0076 244.554,102.008 244.5,105.5C 244.167,105.5 243.833,105.5 243.5,105.5C 242.833,102.5 242.167,99.5 241.5,96.5 Z"/></g>
<g><path style="opacity:1" fill="#6d5969" d="M 282.5,96.5 C 282.585,99.6489 281.585,102.316 279.5,104.5C 279.415,101.351 280.415,98.6845 282.5,96.5 Z"/></g>
<g><path style="opacity:1" fill="#655768" d="M 266.5,108.5 C 266.5,109.833 266.5,111.167 266.5,112.5C 259.313,112.825 252.313,112.491 245.5,111.5C 252.167,111.5 258.833,111.5 265.5,111.5C 265.263,110.209 265.596,109.209 266.5,108.5 Z"/></g>
<g><path style="opacity:1" fill="#da8871" d="M 243.5,105.5 C 243.833,105.5 244.167,105.5 244.5,105.5C 244.833,107.5 245.167,109.5 245.5,111.5C 252.313,112.491 259.313,112.825 266.5,112.5C 259.352,113.492 252.019,113.825 244.5,113.5C 243.908,110.873 243.575,108.206 243.5,105.5 Z"/></g>
<g><path style="opacity:1" fill="#715b69" d="M 278.5,108.5 C 278.337,110.857 278.503,113.19 279,115.5C 280.302,116.085 281.469,116.751 282.5,117.5C 280.856,117.714 279.356,117.38 278,116.5C 277.199,113.633 277.366,110.966 278.5,108.5 Z"/></g>
<g><path style="opacity:1" fill="#685669" d="M 287.5,120.5 C 289.989,120.241 291.656,121.241 292.5,123.5C 290.566,122.89 288.899,121.89 287.5,120.5 Z"/></g>
<g><path style="opacity:1" fill="#7e616a" d="M 260.5,130.5 C 255.178,130.98 249.845,131.313 244.5,131.5C 249.755,129.476 255.089,129.143 260.5,130.5 Z"/></g>
<g><path style="opacity:1" fill="#1e3863" d="M 260.5,130.5 C 283.405,134.073 297.738,147.073 303.5,169.5C 303.5,171.833 303.5,174.167 303.5,176.5C 271.5,176.5 239.5,176.5 207.5,176.5C 207.833,173.167 208.167,169.833 208.5,166.5C 209.36,163.368 210.36,160.368 211.5,157.5C 212.906,157.027 213.573,156.027 213.5,154.5C 218.63,145.368 225.964,138.701 235.5,134.5C 238.855,134.31 241.855,133.31 244.5,131.5C 249.845,131.313 255.178,130.98 260.5,130.5 Z"/></g>
<g><path style="opacity:1" fill="#6d5969" d="M 244.5,131.5 C 241.855,133.31 238.855,134.31 235.5,134.5C 238.084,132.528 241.084,131.528 244.5,131.5 Z"/></g>
<g><path style="opacity:1" fill="#ac746d" d="M 198.5,145.5 C 198.573,147.027 197.906,148.027 196.5,148.5C 196.427,146.973 197.094,145.973 198.5,145.5 Z"/></g>
<g><path style="opacity:1" fill="#8f686b" d="M 213.5,154.5 C 213.573,156.027 212.906,157.027 211.5,157.5C 211.427,155.973 212.094,154.973 213.5,154.5 Z"/></g>
<g><path style="opacity:1" fill="#a7726d" d="M 315.5,149.5 C 318.129,153.377 319.796,157.71 320.5,162.5C 318.027,158.541 316.36,154.207 315.5,149.5 Z"/></g>
<g><path style="opacity:1" fill="#83636a" d="M 208.5,166.5 C 208.167,169.833 207.833,173.167 207.5,176.5C 207.5,176.833 207.5,177.167 207.5,177.5C 206.226,173.735 206.559,170.069 208.5,166.5 Z"/></g>
<g><path style="opacity:1" fill="#4e4c66" d="M 189.5,168.5 C 189.5,171.5 189.5,174.5 189.5,177.5C 177.833,177.5 166.167,177.5 154.5,177.5C 165.654,176.505 176.988,176.172 188.5,176.5C 188.194,173.615 188.527,170.948 189.5,168.5 Z"/></g>
<g><path style="opacity:1" fill="#4f4e67" d="M 303.5,169.5 C 304.473,171.948 304.806,174.615 304.5,177.5C 272.167,177.5 239.833,177.5 207.5,177.5C 207.5,177.167 207.5,176.833 207.5,176.5C 239.5,176.5 271.5,176.5 303.5,176.5C 303.5,174.167 303.5,171.833 303.5,169.5 Z"/></g>
<g><path style="opacity:1" fill="#434865" d="M 322.5,170.5 C 323.461,172.265 323.795,174.265 323.5,176.5C 334.346,176.172 345.013,176.506 355.5,177.5C 344.5,177.5 333.5,177.5 322.5,177.5C 322.5,175.167 322.5,172.833 322.5,170.5 Z"/></g>
<g><path style="opacity:1" fill="#c07d6f" d="M 132.5,181.5 C 128.915,183.806 124.915,185.139 120.5,185.5C 124.233,183.589 128.233,182.256 132.5,181.5 Z"/></g>
<g><path style="opacity:1" fill="#a7726d" d="M 118.5,186.5 C 118.027,187.906 117.027,188.573 115.5,188.5C 115.973,187.094 116.973,186.427 118.5,186.5 Z"/></g>
<g><path style="opacity:1" fill="#8d686b" d="M 139.5,197.5 C 138.07,198.537 136.403,199.204 134.5,199.5C 135.635,197.787 137.302,197.12 139.5,197.5 Z"/></g>
<g><path style="opacity:1" fill="#1f3863" d="M 367.5,196.5 C 369.102,198.074 371.102,198.741 373.5,198.5C 390.566,203.849 403.566,214.182 412.5,229.5C 412.427,231.027 413.094,232.027 414.5,232.5C 415.363,234.421 416.029,236.421 416.5,238.5C 416.796,240.403 417.463,242.07 418.5,243.5C 419.29,244.609 419.79,245.942 420,247.5C 420.782,257.214 420.615,266.88 419.5,276.5C 417.266,280.522 415.599,284.856 414.5,289.5C 407.802,303.532 397.468,313.865 383.5,320.5C 381.597,320.796 379.93,321.463 378.5,322.5C 375.215,322.928 372.215,323.928 369.5,325.5C 357.591,327.408 345.925,326.741 334.5,323.5C 332.898,321.926 330.898,321.259 328.5,321.5C 317.203,316.039 307.87,308.206 300.5,298C 270.5,297.333 240.5,297.333 210.5,298C 209.944,298.383 209.611,298.883 209.5,299.5C 207.413,300.585 206.08,302.251 205.5,304.5C 199.045,310.632 192.045,315.965 184.5,320.5C 182.033,320.755 180.033,321.755 178.5,323.5C 176.435,323.517 174.435,323.85 172.5,324.5C 169.848,324.41 167.515,325.076 165.5,326.5C 158.833,326.5 152.167,326.5 145.5,326.5C 143.485,325.076 141.152,324.41 138.5,324.5C 132.119,323.671 126.453,321.337 121.5,317.5C 121.027,316.094 120.027,315.427 118.5,315.5C 107.9,308.568 100.233,299.234 95.5,287.5C 95.0652,284.843 94.0652,282.509 92.5,280.5C 90.4323,274.085 89.4323,267.418 89.5,260.5C 89.3541,255.576 90.0207,250.909 91.5,246.5C 92.9238,244.485 93.5905,242.152 93.5,239.5C 94.5375,238.07 95.2041,236.403 95.5,234.5C 95.6596,232.847 96.3263,231.514 97.5,230.5C 98.9063,230.027 99.573,229.027 99.5,227.5C 105.221,216.779 113.554,208.779 124.5,203.5C 128.327,203.248 131.66,201.915 134.5,199.5C 136.403,199.204 138.07,198.537 139.5,197.5C 141.086,196.852 142.753,196.352 144.5,196C 218.861,195.176 293.195,195.343 367.5,196.5 Z"/></g>
<g><path style="opacity:1" fill="#966b6c" d="M 367.5,196.5 C 369.898,196.259 371.898,196.926 373.5,198.5C 371.102,198.741 369.102,198.074 367.5,196.5 Z"/></g>
<g><path style="opacity:1" fill="#b0766e" d="M 100.5,199.5 C 98.5,202.167 96.1667,204.5 93.5,206.5C 94.8333,203.167 97.1667,200.833 100.5,199.5 Z"/></g>
<g><path style="opacity:1" fill="#4e4a66" d="M 134.5,199.5 C 131.66,201.915 128.327,203.248 124.5,203.5C 127.34,201.085 130.673,199.752 134.5,199.5 Z"/></g>
<g><path style="opacity:1" fill="#a3716c" d="M 159.5,221.5 C 154.105,221.267 148.772,221.6 143.5,222.5C 143.611,221.883 143.944,221.383 144.5,221C 149.684,220.184 154.684,220.35 159.5,221.5 Z"/></g>
<g><path style="opacity:1" fill="#fb9673" d="M 159.5,221.5 C 161.017,221.511 162.184,222.177 163,223.5C 163.498,226.482 163.665,229.482 163.5,232.5C 163.5,237.833 163.5,243.167 163.5,248.5C 171.5,248.5 179.5,248.5 187.5,248.5C 188.117,248.611 188.617,248.944 189,249.5C 189.667,255.167 189.667,260.833 189,266.5C 188.292,267.381 187.458,268.047 186.5,268.5C 178.5,268.5 170.5,268.5 162.5,268.5C 162.5,276.5 162.5,284.5 162.5,292.5C 161.833,293.5 161.167,294.5 160.5,295.5C 154.741,295.786 149.075,295.452 143.5,294.5C 143.217,293.711 142.717,293.044 142,292.5C 141.5,284.507 141.334,276.507 141.5,268.5C 133.493,268.666 125.493,268.5 117.5,268C 116.944,267.617 116.611,267.117 116.5,266.5C 116.254,260.441 116.587,254.441 117.5,248.5C 117.5,247.833 117.833,247.5 118.5,247.5C 126.5,247.5 134.5,247.5 142.5,247.5C 142.5,239.5 142.5,231.5 142.5,223.5C 142.5,222.833 142.833,222.5 143.5,222.5C 148.772,221.6 154.105,221.267 159.5,221.5 Z"/></g>
<g><path style="opacity:1" fill="#956b6c" d="M 359.5,222.5 C 356.43,222.368 353.43,222.701 350.5,223.5C 350.611,222.883 350.944,222.383 351.5,222C 354.367,221.199 357.034,221.366 359.5,222.5 Z"/></g>
<g><path style="opacity:1" fill="#f79473" d="M 359.5,222.5 C 369.734,225.634 373.067,232.301 369.5,242.5C 368.094,242.973 367.427,243.973 367.5,245.5C 357.327,253.501 349.161,251.834 343,240.5C 340.655,232.534 343.155,226.867 350.5,223.5C 353.43,222.701 356.43,222.368 359.5,222.5 Z"/></g>
<g><path style="opacity:1" fill="#82636a" d="M 80.5,225.5 C 80.573,227.027 79.9063,228.027 78.5,228.5C 78.427,226.973 79.0937,225.973 80.5,225.5 Z"/></g>
<g><path style="opacity:1" fill="#735c69" d="M 99.5,227.5 C 99.573,229.027 98.9063,230.027 97.5,230.5C 97.427,228.973 98.0937,227.973 99.5,227.5 Z"/></g>
<g><path style="opacity:1" fill="#a4716d" d="M 431.5,227.5 C 432.931,228.78 433.598,230.447 433.5,232.5C 431.787,231.365 431.12,229.698 431.5,227.5 Z"/></g>
<g><path style="opacity:1" fill="#8d676b" d="M 412.5,229.5 C 413.906,229.973 414.573,230.973 414.5,232.5C 413.094,232.027 412.427,231.027 412.5,229.5 Z"/></g>
<g><path style="opacity:1" fill="#aa736d" d="M 95.5,234.5 C 95.2041,236.403 94.5375,238.07 93.5,239.5C 93.1201,237.302 93.7868,235.635 95.5,234.5 Z"/></g>
<g><path style="opacity:1" fill="#9f6f6c" d="M 416.5,238.5 C 418.213,239.635 418.88,241.302 418.5,243.5C 417.463,242.07 416.796,240.403 416.5,238.5 Z"/></g>
<g><path style="opacity:1" fill="#785e6a" d="M 93.5,239.5 C 93.5905,242.152 92.9238,244.485 91.5,246.5C 91.4095,243.848 92.0762,241.515 93.5,239.5 Z"/></g>
<g><path style="opacity:1" fill="#725b69" d="M 369.5,242.5 C 369.573,244.027 368.906,245.027 367.5,245.5C 367.427,243.973 368.094,242.973 369.5,242.5 Z"/></g>
<g><path style="opacity:1" fill="#715b69" d="M 142.5,223.5 C 142.5,231.5 142.5,239.5 142.5,247.5C 134.5,247.5 126.5,247.5 118.5,247.5C 125.982,246.508 133.648,246.175 141.5,246.5C 141.175,238.648 141.508,230.982 142.5,223.5 Z"/></g>
<g><path style="opacity:1" fill="#ba7b6f" d="M 163.5,232.5 C 164.487,237.305 164.821,242.305 164.5,247.5C 172.352,247.175 180.018,247.508 187.5,248.5C 179.5,248.5 171.5,248.5 163.5,248.5C 163.5,243.167 163.5,237.833 163.5,232.5 Z"/></g>
<g><path style="opacity:1" fill="#f99573" d="M 343.5,254.5 C 344.65,258.859 344.65,263.192 343.5,267.5C 338.879,275.427 332.212,277.594 323.5,274C 318.111,269.388 316.111,263.555 317.5,256.5C 318.906,256.027 319.573,255.027 319.5,253.5C 323.761,247.633 329.428,245.966 336.5,248.5C 339.464,249.808 341.797,251.808 343.5,254.5 Z"/></g>
<g><path style="opacity:1" fill="#f89573" d="M 393.5,253.5 C 393.427,255.027 394.094,256.027 395.5,256.5C 397.348,269.824 391.348,275.991 377.5,275C 369.265,271.403 366.431,265.237 369,256.5C 372.518,247.996 378.685,245.329 387.5,248.5C 389.941,249.709 391.941,251.376 393.5,253.5 Z"/></g>
<g><path style="opacity:1" fill="#b87a6e" d="M 117.5,248.5 C 116.587,254.441 116.254,260.441 116.5,266.5C 115.348,261.015 115.182,255.349 116,249.5C 116.383,248.944 116.883,248.611 117.5,248.5 Z"/></g>
<g><path style="opacity:1" fill="#956a6c" d="M 319.5,253.5 C 319.573,255.027 318.906,256.027 317.5,256.5C 317.427,254.973 318.094,253.973 319.5,253.5 Z"/></g>
<g><path style="opacity:1" fill="#a9736e" d="M 393.5,253.5 C 394.906,253.973 395.573,254.973 395.5,256.5C 394.094,256.027 393.427,255.027 393.5,253.5 Z"/></g>
<g><path style="opacity:1" fill="#3c4565" d="M 438.5,249.5 C 441.037,256.149 441.037,262.816 438.5,269.5C 438.5,262.833 438.5,256.167 438.5,249.5 Z"/></g>
<g><path style="opacity:1" fill="#6c5969" d="M 74.5,241.5 C 72.9356,250.759 72.269,260.092 72.5,269.5C 71.1836,266.913 70.517,263.913 70.5,260.5C 70.8482,253.833 72.1815,247.499 74.5,241.5 Z"/></g>
<g><path style="opacity:1" fill="#9e6e6c" d="M 343.5,254.5 C 345.017,256.462 345.684,258.795 345.5,261.5C 345.333,263.167 345.167,264.833 345,266.5C 344.617,267.056 344.117,267.389 343.5,267.5C 344.65,263.192 344.65,258.859 343.5,254.5 Z"/></g>
<g><path style="opacity:1" fill="#b97a6f" d="M 186.5,268.5 C 179.018,269.492 171.352,269.825 163.5,269.5C 163.825,277.352 163.492,285.018 162.5,292.5C 162.5,284.5 162.5,276.5 162.5,268.5C 170.5,268.5 178.5,268.5 186.5,268.5 Z"/></g>
<g><path style="opacity:1" fill="#7b606a" d="M 360.5,273.5 C 357.098,273.342 353.764,273.676 350.5,274.5C 350.611,273.883 350.944,273.383 351.5,273C 354.696,272.195 357.696,272.362 360.5,273.5 Z"/></g>
<g><path style="opacity:1" fill="#f79573" d="M 360.5,273.5 C 369.473,276.779 372.64,283.113 370,292.5C 365.217,300.539 358.383,303.039 349.5,300C 342.547,294.579 340.714,287.746 344,279.5C 345.777,277.21 347.944,275.543 350.5,274.5C 353.764,273.676 357.098,273.342 360.5,273.5 Z"/></g>
<g><path style="opacity:1" fill="#6b5969" d="M 73.5,277.5 C 74.913,280.219 75.5797,283.219 75.5,286.5C 74.087,283.781 73.4203,280.781 73.5,277.5 Z"/></g>
<g><path style="opacity:1" fill="#a7726d" d="M 419.5,276.5 C 419.176,281.461 417.509,285.794 414.5,289.5C 415.599,284.856 417.266,280.522 419.5,276.5 Z"/></g>
<g><path style="opacity:1" fill="#a4716d" d="M 92.5,280.5 C 94.0652,282.509 95.0652,284.843 95.5,287.5C 93.1663,285.824 92.1663,283.491 92.5,280.5 Z"/></g>
<g><path style="opacity:1" fill="#5a5167" d="M 77.5,291.5 C 78.4918,293.456 79.4918,295.456 80.5,297.5C 78.0246,296.313 77.0246,294.313 77.5,291.5 Z"/></g>
<g><path style="opacity:1" fill="#474a65" d="M 143.5,294.5 C 149.075,295.452 154.741,295.786 160.5,295.5C 157.854,296.164 155.021,296.498 152,296.5C 148.748,296.481 145.915,295.814 143.5,294.5 Z"/></g>
<g><path style="opacity:1" fill="#b87a6e" d="M 209.5,299.5 C 208.92,301.749 207.587,303.415 205.5,304.5C 206.08,302.251 207.413,300.585 209.5,299.5 Z"/></g>
<g><path style="opacity:1" fill="#625668" d="M 292.5,316.5 C 267.455,316.186 242.455,316.519 217.5,317.5C 217.611,316.883 217.944,316.383 218.5,316C 243.337,315.17 268.003,315.337 292.5,316.5 Z"/></g>
<g><path style="opacity:1" fill="#745c69" d="M 118.5,315.5 C 120.027,315.427 121.027,316.094 121.5,317.5C 119.973,317.573 118.973,316.906 118.5,315.5 Z"/></g>
<g><path style="opacity:1" fill="#253a63" d="M 292.5,316.5 C 298.971,323.965 306.638,329.965 315.5,334.5C 315.6,337.108 314.933,339.442 313.5,341.5C 311.851,342.649 310.351,343.982 309,345.5C 303.358,341.273 297.858,336.939 292.5,332.5C 292.027,331.094 291.027,330.427 289.5,330.5C 281.826,326.831 273.826,324.164 265.5,322.5C 258.345,321.345 251.012,321.178 243.5,322C 241.347,322.099 239.681,322.933 238.5,324.5C 236.901,324.232 235.568,324.566 234.5,325.5C 231.422,325.62 228.755,326.62 226.5,328.5C 224.847,328.66 223.514,329.326 222.5,330.5C 220.973,330.427 219.973,331.094 219.5,332.5C 212.885,336.783 206.885,341.783 201.5,347.5C 198.841,344.671 196.341,341.671 194,338.5C 193.26,337.251 193.427,336.251 194.5,335.5C 196.848,335.408 198.514,334.408 199.5,332.5C 206.059,328.283 212.059,323.283 217.5,317.5C 242.455,316.519 267.455,316.186 292.5,316.5 Z"/></g>
<g><path style="opacity:1" fill="#7f616a" d="M 265.5,322.5 C 256.4,322.172 247.4,322.838 238.5,324.5C 239.681,322.933 241.347,322.099 243.5,322C 251.012,321.178 258.345,321.345 265.5,322.5 Z"/></g>
<g><path style="opacity:1" fill="#715a69" d="M 328.5,321.5 C 330.898,321.259 332.898,321.926 334.5,323.5C 332.102,323.741 330.102,323.074 328.5,321.5 Z"/></g>
<g><path style="opacity:1" fill="#a4716d" d="M 383.5,320.5 C 382.365,322.213 380.698,322.88 378.5,322.5C 379.93,321.463 381.597,320.796 383.5,320.5 Z"/></g>
<g><path style="opacity:1" fill="#be7c6f" d="M 184.5,320.5 C 182.967,322.245 180.967,323.245 178.5,323.5C 180.033,321.755 182.033,320.755 184.5,320.5 Z"/></g>
<g><path style="opacity:1" fill="#a3706d" d="M 378.5,322.5 C 375.916,324.472 372.916,325.472 369.5,325.5C 372.215,323.928 375.215,322.928 378.5,322.5 Z"/></g>
<g><path style="opacity:1" fill="#595067" d="M 416.5,317.5 C 414.167,321.833 410.833,325.167 406.5,327.5C 409.5,323.833 412.833,320.5 416.5,317.5 Z"/></g>
<g><path style="opacity:1" fill="#89656b" d="M 138.5,324.5 C 141.152,324.41 143.485,325.076 145.5,326.5C 142.848,326.59 140.515,325.924 138.5,324.5 Z"/></g>
<g><path style="opacity:1" fill="#aa746d" d="M 172.5,324.5 C 170.485,325.924 168.152,326.59 165.5,326.5C 167.515,325.076 169.848,324.41 172.5,324.5 Z"/></g>
<g><path style="opacity:1" fill="#c27e6f" d="M 234.5,325.5 C 232.245,327.38 229.578,328.38 226.5,328.5C 228.755,326.62 231.422,325.62 234.5,325.5 Z"/></g>
<g><path style="opacity:1" fill="#af766e" d="M 222.5,330.5 C 222.027,331.906 221.027,332.573 219.5,332.5C 219.973,331.094 220.973,330.427 222.5,330.5 Z"/></g>
<g><path style="opacity:1" fill="#795f6a" d="M 289.5,330.5 C 291.027,330.427 292.027,331.094 292.5,332.5C 290.973,332.573 289.973,331.906 289.5,330.5 Z"/></g>
<g><path style="opacity:1" fill="#5f5368" d="M 199.5,332.5 C 198.514,334.408 196.848,335.408 194.5,335.5C 195.659,333.75 197.326,332.75 199.5,332.5 Z"/></g>
<g><path style="opacity:1" fill="#9b6d6c" d="M 116.5,334.5 C 118.027,334.427 119.027,335.094 119.5,336.5C 117.973,336.573 116.973,335.906 116.5,334.5 Z"/></g>
<g><path style="opacity:1" fill="#7d606a" d="M 392.5,335.5 C 392.027,336.906 391.027,337.573 389.5,337.5C 389.973,336.094 390.973,335.427 392.5,335.5 Z"/></g>
<g><path style="opacity:1" fill="#c27e6f" d="M 315.5,334.5 C 317.115,337.402 316.449,339.735 313.5,341.5C 314.933,339.442 315.6,337.108 315.5,334.5 Z"/></g>
<g><path style="opacity:1" fill="#91696c" d="M 388.5,337.5 C 386.491,339.065 384.157,340.065 381.5,340.5C 383.32,338.552 385.654,337.552 388.5,337.5 Z"/></g>
<g><path style="opacity:1" fill="#5e5267" d="M 137.5,342.5 C 140.689,342.858 143.689,343.525 146.5,344.5C 142.988,345.055 139.988,344.388 137.5,342.5 Z"/></g>
<g><path style="opacity:1" fill="#675668" d="M 335.5,342.5 C 333.52,343.474 331.853,344.807 330.5,346.5C 330.668,342.621 332.335,341.288 335.5,342.5 Z"/></g>
<g><path style="opacity:1" fill="#223963" d="M 269.5,347.5 C 270.635,349.213 272.302,349.88 274.5,349.5C 277.798,351.485 281.131,353.485 284.5,355.5C 285.5,357.167 286.833,358.5 288.5,359.5C 290.914,360.406 291.747,362.072 291,364.5C 287.349,366.733 283.849,369.066 280.5,371.5C 278.326,371.75 276.659,372.75 275.5,374.5C 269.199,377.161 262.865,379.494 256.5,381.5C 254.194,381.007 251.861,380.674 249.5,380.5C 241.846,378.8 234.846,375.8 228.5,371.5C 228.027,370.094 227.027,369.427 225.5,369.5C 223.388,368.56 221.388,367.394 219.5,366C 218.549,365.282 218.383,364.449 219,363.5C 223.533,357.784 229.033,353.451 235.5,350.5C 237.967,350.245 239.967,349.245 241.5,347.5C 250.834,344.917 260.167,344.917 269.5,347.5 Z"/></g>
<g><path style="opacity:1" fill="#7a5f6a" d="M 269.5,347.5 C 271.403,347.796 273.07,348.463 274.5,349.5C 272.302,349.88 270.635,349.213 269.5,347.5 Z"/></g>
<g><path style="opacity:1" fill="#81626a" d="M 241.5,347.5 C 239.967,349.245 237.967,350.245 235.5,350.5C 237.033,348.755 239.033,347.755 241.5,347.5 Z"/></g>
<g><path style="opacity:1" fill="#5a5067" d="M 330.5,346.5 C 330.092,350.573 328.092,353.573 324.5,355.5C 326.538,352.474 328.538,349.474 330.5,346.5 Z"/></g>
<g><path style="opacity:1" fill="#ac756e" d="M 284.5,355.5 C 286.833,355.833 288.167,357.167 288.5,359.5C 286.833,358.5 285.5,357.167 284.5,355.5 Z"/></g>
<g><path style="opacity:1" fill="#b5796e" d="M 198.5,370.5 C 200.749,371.08 202.415,372.413 203.5,374.5C 201.251,373.92 199.585,372.587 198.5,370.5 Z"/></g>
<g><path style="opacity:1" fill="#7d606a" d="M 225.5,369.5 C 227.027,369.427 228.027,370.094 228.5,371.5C 226.973,371.573 225.973,370.906 225.5,369.5 Z"/></g>
<g><path style="opacity:1" fill="#5f5368" d="M 319.5,361.5 C 315.167,367.833 309.833,373.167 303.5,377.5C 308.5,371.833 313.833,366.5 319.5,361.5 Z"/></g>
<g><path style="opacity:1" fill="#b0766e" d="M 280.5,371.5 C 279.514,373.408 277.848,374.408 275.5,374.5C 276.659,372.75 278.326,371.75 280.5,371.5 Z"/></g>
<g><path style="opacity:1" fill="#956b6c" d="M 249.5,380.5 C 251.861,380.674 254.194,381.007 256.5,381.5C 253.988,382.867 251.655,382.534 249.5,380.5 Z"/></g>
<g><path style="opacity:1" fill="#7f616a" d="M 292.5,384.5 C 292.027,385.906 291.027,386.573 289.5,386.5C 289.973,385.094 290.973,384.427 292.5,384.5 Z"/></g>
<g><path style="opacity:1" fill="#5f5368" d="M 276.5,393.5 C 274.898,395.074 272.898,395.741 270.5,395.5C 272.102,393.926 274.102,393.259 276.5,393.5 Z"/></g>
<g><path style="opacity:1" fill="#595067" d="M 270.5,395.5 C 269.152,396.601 267.652,397.601 266,398.5C 265.014,402.004 263.847,405.337 262.5,408.5C 262.952,404.837 263.452,401.17 264,397.5C 266.007,396.331 268.173,395.665 270.5,395.5 Z"/></g>
<g><path style="opacity:1" fill="#85646b" d="M 253.5,448.5 C 254.167,448.833 254.833,449.167 255.5,449.5C 254.754,454.479 254.088,454.146 253.5,448.5 Z"/></g>
</svg>
